# Blender v2.91.2 OBJ File: 'Pirat_Bomb_final.blend'
# www.blender.org
mtllib Pirat_Bomb_final.mtl
o bomb_low.002_NurbsPath.249
v -0.087383 0.393715 -0.094832
v -0.044749 0.439661 -0.114666
v -0.047409 0.454634 -0.080573
v -0.090105 0.409037 -0.059944
v -0.037719 0.358190 -0.076191
v 0.013500 0.383848 -0.083876
v 0.011899 0.395999 -0.054033
v -0.039164 0.369635 -0.048028
v -0.018943 0.325533 -0.054278
v 0.020292 0.331702 -0.051399
v 0.019369 0.339644 -0.030042
v -0.019780 0.332803 -0.034722
v -0.051115 0.273952 -0.061521
v 0.050643 0.283612 -0.051754
v 0.048314 0.303763 0.003437
v -0.053248 0.292408 -0.010970
v -0.064742 0.409498 -0.121968
v -0.071111 0.442969 -0.044652
v -0.011409 0.365543 -0.094144
v -0.015063 0.393074 -0.026460
v 0.001106 0.324633 -0.064083
v -0.000879 0.342037 -0.016648
v 0.000857 0.269445 -0.084332
v -0.004125 0.312568 0.033797
v -0.092964 0.091435 0.143193
v -0.113981 0.278129 0.073199
v -0.065891 0.020798 -0.053345
v -0.086909 0.207491 -0.123340
v 0.114713 0.121490 0.160998
v 0.093696 0.308184 0.091003
v 0.141786 0.050852 -0.035541
v 0.120768 0.237546 -0.105535
v -0.099158 0.033205 0.050441
v -0.128286 0.189072 0.127089
v -0.124619 0.259367 -0.034351
v -0.095491 0.103501 -0.110999
v 0.043030 0.008624 -0.057819
v 0.017570 0.234786 -0.142611
v 0.156091 0.139909 -0.089431
v 0.152423 0.069614 0.072009
v 0.126963 0.295776 -0.012783
v 0.123295 0.225480 0.148658
v 0.010235 0.094195 0.180269
v -0.015226 0.320357 0.095477
v -0.161890 0.139050 0.003758
v 0.036818 0.104698 -0.147535
v 0.189695 0.189931 0.033900
v -0.009013 0.224283 0.185193
v 0.031693 0.006460 0.078077
v -0.084521 0.019475 -0.010535
v -0.100820 0.062002 0.107789
v -0.113800 0.131463 0.141946
v -0.126454 0.243860 0.099807
v -0.124819 0.275186 0.027863
v -0.108521 0.232659 -0.090462
v -0.095540 0.163199 -0.124619
v -0.082887 0.050802 -0.082480
v 0.103874 0.026615 -0.048061
v -0.021156 0.008521 -0.058780
v -0.045156 0.221705 -0.138707
v 0.079875 0.239799 -0.127988
v 0.141605 0.197518 -0.104288
v 0.154258 0.085121 -0.062149
v 0.136325 0.096322 0.128120
v 0.152624 0.053795 0.009796
v 0.128625 0.266979 -0.070131
v 0.112326 0.309506 0.048194
v 0.110692 0.278179 0.120138
v 0.123345 0.165782 0.162277
v -0.052070 0.089182 0.165646
v 0.072960 0.107276 0.176365
v 0.048961 0.320460 0.096439
v -0.076069 0.302366 0.085720
v -0.157777 0.164460 0.070298
v -0.155762 0.203087 -0.018413
v -0.139756 0.117439 -0.060531
v -0.141772 0.078812 0.028180
v -0.034014 0.099158 -0.141042
v 0.028112 0.171299 -0.158412
v 0.104229 0.119164 -0.129190
v 0.042103 0.047024 -0.111819
v 0.185582 0.164521 -0.032639
v 0.169577 0.250169 0.009479
v 0.167561 0.211542 0.098190
v 0.183567 0.125894 0.056071
v 0.061819 0.229823 0.178700
v -0.014298 0.281957 0.149477
v -0.076425 0.209817 0.166848
v -0.000308 0.157682 0.196070
v 0.039375 -0.005253 0.008240
v 0.099487 0.028261 0.079580
v 0.021354 0.041768 0.139069
v -0.038757 0.008254 0.067728
v 0.007801 0.280943 -0.106579
v -0.078245 0.295819 -0.041064
v -0.012104 0.332968 0.037869
v 0.074001 0.317851 -0.028012
v -0.139232 0.105658 0.090727
v -0.152615 0.224539 0.046156
v -0.135376 0.179559 -0.078995
v -0.121993 0.060677 -0.034424
v -0.025817 0.044050 -0.107651
v -0.039200 0.162932 -0.152222
v 0.093043 0.182070 -0.140884
v 0.106427 0.063188 -0.096313
v 0.180420 0.104442 -0.008498
v 0.167037 0.223323 -0.053069
v 0.149798 0.268304 0.072082
v 0.163181 0.149422 0.116653
v 0.067005 0.166049 0.189880
v 0.053622 0.284931 0.145309
v -0.078622 0.265793 0.133971
v -0.065239 0.146911 0.178542
v -0.028298 -0.003497 0.001547
v 0.103946 0.015641 0.012884
v 0.086707 0.060622 0.138035
v -0.045537 0.041483 0.126698
v 0.058722 0.296316 -0.080864
v -0.048933 0.280737 -0.090093
v -0.062966 0.317354 0.011787
v 0.044688 0.332933 0.021017
v 0.006271 0.287558 -0.099771
v -0.069460 0.300654 -0.041592
v -0.011470 0.334255 0.028669
v 0.064426 0.320029 -0.030114
v 0.050989 0.301091 -0.076592
v -0.043810 0.287385 -0.084877
v -0.056023 0.319592 0.004886
v 0.038648 0.333292 0.013002
v 0.012267 0.261583 -0.125989
v -0.101851 0.281311 -0.039102
v -0.014054 0.330261 0.065096
v 0.100063 0.310532 -0.021791
v 0.068880 0.271776 -0.105820
v 0.093255 0.285366 -0.076891
v -0.047463 0.254939 -0.115794
v -0.079145 0.260417 -0.091672
v -0.094311 0.299989 0.018431
v -0.069936 0.313578 0.047359
v 0.046406 0.330415 0.057334
v 0.078088 0.324938 0.033211
v 0.006424 0.286014 -0.098762
v -0.068069 0.298930 -0.040781
v -0.011293 0.332675 0.029521
v 0.063462 0.317965 -0.029505
v 0.050275 0.299363 -0.075177
v -0.043186 0.285864 -0.083722
v -0.054869 0.317535 0.004880
v 0.038137 0.330995 0.012853
v 0.003463 0.324540 -0.129575
v -0.032329 0.348686 -0.053824
v -0.010350 0.359761 -0.026906
v 0.075049 0.364451 -0.044616
v 0.012500 0.346819 -0.065508
v -0.022398 0.343802 -0.069607
v -0.026380 0.355409 -0.037074
v 0.008539 0.359488 -0.032606
v -0.003735 0.341973 -0.073455
v 0.058527 0.341164 -0.101768
v 0.019175 0.355327 -0.049033
v -0.089584 0.340625 -0.058730
v -0.057886 0.324317 -0.111748
v -0.073062 0.363913 -0.001579
v -0.017998 0.380537 0.026228
v 0.043352 0.380760 0.008402
v -0.002773 0.331007 -0.063654
v -0.005723 0.338926 -0.046568
v -0.025844 0.334723 -0.047829
v -0.008116 0.345010 -0.026079
v 0.017025 0.341286 -0.044283
v 0.010005 0.334801 -0.057566
v -0.017503 0.330764 -0.060529
v -0.020198 0.339969 -0.034534
v 0.007372 0.344795 -0.031009
v -0.084891 0.381203 -0.094951
v -0.088271 0.400254 -0.051557
v -0.056301 0.401089 -0.129170
v -0.030681 0.439819 -0.119813
v -0.034002 0.458538 -0.077176
v -0.063843 0.443821 -0.031901
vt 0.911184 0.561749
vt 0.917286 0.589695
vt 0.896836 0.594371
vt 0.890815 0.564730
vt 0.821472 0.565083
vt 0.819206 0.594352
vt 0.799629 0.590126
vt 0.802337 0.562130
vt 0.852069 0.567665
vt 0.850778 0.598136
vt 0.835982 0.596540
vt 0.837072 0.566878
vt 0.870619 0.567001
vt 0.871049 0.597587
vt 0.923602 0.608240
vt 0.902152 0.614547
vt 0.811971 0.615719
vt 0.791470 0.607414
vt 0.853422 0.623806
vt 0.833124 0.622036
vt 0.875240 0.621199
vt 0.931972 0.631848
vt 0.909197 0.638701
vt 0.803123 0.638629
vt 0.780836 0.629094
vt 0.853686 0.649619
vt 0.827970 0.646788
vt 0.880024 0.645970
vt 0.873197 0.564726
vt 0.867583 0.566666
vt 0.847398 0.567100
vt 0.807715 0.562722
vt 0.276929 0.757260
vt 0.265219 0.704527
vt 0.335181 0.702358
vt 0.331380 0.769829
vt 0.262181 0.633281
vt 0.334685 0.636802
vt 0.403329 0.637830
vt 0.404503 0.703736
vt 0.405766 0.774578
vt 0.272327 0.563052
vt 0.339206 0.574017
vt 0.292097 0.512389
vt 0.343575 0.516549
vt 0.401178 0.517157
vt 0.402212 0.575224
vt 0.465134 0.571774
vt 0.471891 0.634356
vt 0.458720 0.514507
vt 0.510012 0.508501
vt 0.531580 0.558428
vt 0.544225 0.628253
vt 0.473733 0.699888
vt 0.479936 0.767181
vt 0.543727 0.699561
vt 0.533905 0.752679
vt 0.754799 0.523440
vt 0.702097 0.535180
vt 0.699880 0.465248
vt 0.767326 0.469006
vt 0.630885 0.538273
vt 0.634343 0.465789
vt 0.635322 0.397156
vt 0.701217 0.395947
vt 0.772033 0.394650
vt 0.560677 0.528196
vt 0.571562 0.461322
vt 0.514086 0.457019
vt 0.514584 0.399387
vt 0.572708 0.398308
vt 0.569244 0.335369
vt 0.631825 0.328601
vt 0.511945 0.341779
vt 0.505992 0.290467
vt 0.555912 0.268926
vt 0.625714 0.256285
vt 0.697342 0.326740
vt 0.764607 0.320513
vt 0.696995 0.256770
vt 0.750094 0.266572
vt 0.521160 0.045596
vt 0.532869 0.098329
vt 0.462908 0.100498
vt 0.466709 0.033028
vt 0.535908 0.169575
vt 0.463404 0.166055
vt 0.394760 0.165026
vt 0.393586 0.099120
vt 0.392323 0.028278
vt 0.525762 0.239804
vt 0.458883 0.228839
vt 0.454514 0.286307
vt 0.396911 0.285700
vt 0.395877 0.227632
vt 0.332954 0.231082
vt 0.326197 0.168500
vt 0.339369 0.288350
vt 0.288077 0.294356
vt 0.266508 0.244428
vt 0.253864 0.174604
vt 0.324356 0.102968
vt 0.318152 0.035676
vt 0.254362 0.103295
vt 0.264184 0.050177
vt 0.043291 0.279416
vt 0.095992 0.267677
vt 0.098209 0.337608
vt 0.030763 0.333851
vt 0.167204 0.264584
vt 0.163746 0.337068
vt 0.162767 0.405701
vt 0.096872 0.406909
vt 0.026056 0.408207
vt 0.237412 0.274660
vt 0.226527 0.341535
vt 0.284003 0.345838
vt 0.283505 0.403470
vt 0.225381 0.404548
vt 0.228846 0.467488
vt 0.166264 0.474255
vt 0.286144 0.461078
vt 0.242177 0.533930
vt 0.172375 0.546571
vt 0.100747 0.476117
vt 0.033482 0.482343
vt 0.101094 0.546086
vt 0.047996 0.536284
vt 0.838590 0.709708
vt 0.850878 0.759443
vt 0.786549 0.762197
vt 0.788752 0.697847
vt 0.856702 0.828011
vt 0.788581 0.828302
vt 0.720719 0.828593
vt 0.720429 0.760731
vt 0.720137 0.692609
vt 0.851465 0.896626
vt 0.787115 0.894423
vt 0.839603 0.946464
vt 0.789869 0.958751
vt 0.721301 0.964576
vt 0.721009 0.896455
vt 0.654889 0.894988
vt 0.652857 0.828883
vt 0.652686 0.959338
vt 0.602848 0.947477
vt 0.590560 0.897742
vt 0.584736 0.829175
vt 0.654323 0.762763
vt 0.651569 0.698434
vt 0.589973 0.760559
vt 0.601835 0.710722
vt 0.449183 0.323340
vt 0.475100 0.348399
vt 0.443904 0.354725
vt 0.486941 0.399902
vt 0.463478 0.400350
vt 0.397810 0.336647
vt 0.397399 0.313280
vt 0.477050 0.451754
vt 0.445706 0.446567
vt 0.452078 0.477705
vt 0.400690 0.489576
vt 0.348906 0.479517
vt 0.322989 0.454457
vt 0.311148 0.402955
vt 0.352383 0.356290
vt 0.346011 0.325151
vt 0.321039 0.351103
vt 0.400279 0.466210
vt 0.354185 0.448131
vt 0.360100 0.441962
vt 0.400097 0.457752
vt 0.439522 0.440684
vt 0.334610 0.402507
vt 0.358567 0.362172
vt 0.343089 0.402312
vt 0.437988 0.360894
vt 0.397992 0.345104
vt 0.455000 0.400544
vt 0.973495 0.321373
vt 0.973495 0.377703
vt 0.926171 0.377703
vt 0.926171 0.321373
vt 0.973495 0.490364
vt 0.973495 0.546695
vt 0.926171 0.546695
vt 0.926171 0.490364
vt 0.973495 0.434034
vt 0.926171 0.434034
vt 0.327640 0.879606
vt 0.351446 0.879606
vt 0.351446 0.894498
vt 0.327640 0.894498
vt 0.375251 0.879606
vt 0.399056 0.879606
vt 0.399056 0.894498
vt 0.375251 0.894498
vt 0.446666 0.879606
vt 0.470471 0.879606
vt 0.470471 0.894498
vt 0.446666 0.894498
vt 0.280030 0.879606
vt 0.303835 0.879606
vt 0.303835 0.894498
vt 0.280030 0.894498
vt 0.973495 0.208711
vt 0.973495 0.265042
vt 0.926171 0.265042
vt 0.926171 0.208711
vt 0.973495 0.152381
vt 0.926171 0.152381
vt 0.973495 0.096050
vt 0.926171 0.096050
vt 0.156314 0.826174
vt 0.156314 0.849979
vt 0.117053 0.866242
vt 0.117053 0.809911
vt 0.173147 0.866812
vt 0.156884 0.906073
vt 0.196952 0.809341
vt 0.173147 0.809341
vt 0.156884 0.770080
vt 0.213215 0.770080
vt 0.213785 0.826174
vt 0.253046 0.809911
vt 0.213785 0.849979
vt 0.253046 0.866242
vt 0.196952 0.866812
vt 0.213215 0.906073
vt 0.115020 0.720181
vt 0.091215 0.720181
vt 0.103117 0.691446
vt 0.131853 0.703348
vt 0.074382 0.703348
vt 0.074382 0.679543
vt 0.091215 0.662710
vt 0.115020 0.662710
vt 0.131853 0.679543
vt 0.422861 0.879606
vt 0.422861 0.894498
vt 0.835949 0.566557
vt 0.821920 0.564963
vn -0.7083 -0.6409 -0.2959
vn -0.5251 -0.8015 -0.2862
vn -0.6613 -0.4514 0.5991
vn -0.7795 -0.3215 0.5377
vn -0.1527 -0.2311 -0.9609
vn 0.2360 -0.5150 -0.8241
vn 0.3419 0.9389 0.0391
vn 0.8474 0.4531 0.2769
vn 0.8657 0.0772 -0.4946
vn 0.3644 0.5522 -0.7499
vn -0.2420 0.5552 0.7958
vn 0.1469 0.2507 0.9569
vn -0.8154 -0.0297 -0.5781
vn -0.9106 0.2636 0.3183
vn 0.1473 -0.0810 -0.9858
vn 0.8058 0.5216 0.2805
vn 0.8515 0.2089 -0.4810
vn -0.0582 0.6444 0.7624
vn -0.6418 0.4753 -0.6018
vn -0.7631 0.6450 0.0402
vn 0.0119 0.3501 -0.9366
vn 0.6717 0.7168 0.1871
vn 0.6996 0.4484 -0.5564
vn -0.1356 0.8642 0.4846
vn -0.9644 0.2625 0.0311
vn -0.7304 0.6697 0.1343
vn -0.4678 0.8556 -0.2217
vn -0.9272 0.1064 -0.3591
vn -0.5705 -0.4455 0.6900
vn -0.7102 -0.1767 0.6814
vn -0.8649 -0.3414 0.3680
vn -0.6165 -0.6305 0.4717
vn -0.7882 0.1363 0.6001
vn -0.9647 -0.0099 0.2633
vn -0.9861 -0.1427 -0.0845
vn -0.8720 -0.4864 0.0547
vn -0.6065 -0.7711 0.1936
vn -0.7790 0.4342 0.4524
vn -0.9395 0.3211 0.1196
vn -0.6948 0.6655 0.2728
vn -0.7703 0.6377 0.0067
vn -0.7812 0.5454 -0.3036
vn -0.9518 0.2225 -0.2111
vn -0.8520 0.0930 -0.5152
vn -0.8704 -0.2557 -0.4207
vn -0.6882 0.4235 -0.5890
vn -0.5490 0.2850 -0.7857
vn -0.6072 -0.0140 -0.7944
vn -0.6064 -0.3381 -0.7197
vn -0.7775 -0.5696 -0.2668
vn -0.5373 -0.8371 -0.1032
vn -0.5385 -0.6248 -0.5654
vn -0.4245 -0.8264 -0.3699
vn -0.1861 -0.6718 -0.7170
vn -0.1471 -0.9045 -0.4002
vn -0.2418 -0.3644 -0.8993
vn 0.1286 -0.3354 -0.9333
vn 0.1588 -0.6646 -0.7301
vn 0.1646 -0.9044 -0.3935
vn -0.2607 -0.0093 -0.9654
vn -0.2993 0.3563 -0.8851
vn 0.0194 0.4070 -0.9132
vn 0.0790 0.0443 -0.9959
vn 0.4100 0.0878 -0.9079
vn 0.4810 -0.2598 -0.8373
vn 0.3302 0.4474 -0.8312
vn 0.5696 0.4469 -0.6898
vn 0.7102 0.1767 -0.6814
vn 0.7882 -0.1363 -0.6001
vn 0.4845 -0.5747 -0.6595
vn 0.4603 -0.8166 -0.3482
vn 0.7790 -0.4342 -0.4524
vn 0.6954 -0.6644 -0.2739
vn 0.9395 -0.3211 -0.1196
vn 0.7605 -0.6493 0.0081
vn 0.9647 0.0099 -0.2633
vn 0.9861 0.1427 0.0845
vn 0.9518 -0.2225 0.2111
vn 0.7579 -0.5737 0.3106
vn 0.8649 0.3414 -0.3680
vn 0.6294 0.6142 -0.4761
vn 0.6353 0.7504 -0.1822
vn 0.8720 0.4864 -0.0547
vn 0.7775 0.5696 0.2668
vn 0.8704 0.2557 0.4207
vn 0.5473 0.8283 0.1197
vn 0.4238 0.8273 0.3687
vn 0.5385 0.6248 0.5654
vn 0.6064 0.3381 0.7197
vn 0.8520 -0.0930 0.5152
vn 0.6813 -0.4426 0.5829
vn 0.6072 0.0140 0.7944
vn 0.5494 -0.2834 0.7860
vn 0.2607 0.0093 0.9654
vn 0.2912 -0.3752 0.8800
vn 0.2418 0.3644 0.8993
vn -0.1286 0.3354 0.9333
vn -0.0790 -0.0443 0.9959
vn -0.0132 -0.4404 0.8977
vn 0.1861 0.6718 0.7170
vn 0.1584 0.8956 0.4158
vn -0.1653 0.8888 0.4274
vn -0.1588 0.6646 0.7301
vn -0.4845 0.5747 0.6595
vn -0.4810 0.2598 0.8373
vn -0.4711 0.8045 0.3618
vn -0.4100 -0.0878 0.9079
vn -0.3163 -0.4631 0.8280
vn -0.1905 -0.9813 -0.0274
vn 0.1434 -0.9897 -0.0027
vn 0.1048 -0.9312 0.3491
vn -0.2499 -0.9217 0.2968
vn 0.4608 -0.8871 0.0285
vn 0.4461 -0.8209 0.3565
vn 0.3759 -0.6655 0.6448
vn 0.0527 -0.7529 0.6560
vn -0.2754 -0.7598 0.5890
vn 0.4051 0.7451 -0.5299
vn 0.2642 0.6665 -0.6972
vn 0.2323 0.7897 -0.5678
vn -0.0244 0.6291 -0.7769
vn -0.0442 0.7159 -0.6968
vn 0.2953 0.9113 -0.2869
vn 0.4137 0.8734 -0.2569
vn -0.3210 0.5818 -0.7473
vn -0.3484 0.7041 -0.6187
vn -0.5042 0.6135 -0.6078
vn -0.5940 0.7276 -0.3433
vn -0.5805 0.8125 -0.0541
vn -0.4404 0.8905 0.1142
vn -0.1559 0.9715 0.1784
vn 0.1608 0.9869 -0.0112
vn 0.3288 0.9441 0.0239
vn 0.1464 0.9754 0.1645
vn -0.4889 0.7972 -0.3542
vn -0.4278 0.9018 -0.0618
vn -0.4096 0.9088 -0.0792
vn -0.4701 0.8078 -0.3557
vn -0.3318 0.7252 -0.6033
vn -0.1488 0.9864 0.0692
vn 0.1446 0.9890 -0.0315
vn -0.1482 0.9865 0.0697
vn 0.2050 0.8068 -0.5541
vn 0.2726 0.9168 -0.2919
vn -0.0461 0.7232 -0.6891
vn -0.7200 -0.1744 0.6717
vn -0.0887 0.0270 0.9957
vn -0.0894 0.0269 0.9956
vn -0.7178 -0.1730 0.6744
vn 0.9645 -0.1765 0.1964
vn 0.7824 -0.4323 -0.4483
vn 0.7813 -0.4329 -0.4496
vn 0.6177 0.0194 0.7862
vn 0.6147 0.0201 0.7885
vn -0.9748 0.1468 -0.1681
vn -0.7486 0.4436 0.4928
vn -0.7355 0.4515 0.5051
vn -0.9762 0.1519 -0.1551
vn -0.1439 0.6344 0.7595
vn 0.5391 0.6171 0.5733
vn 0.5139 0.6221 0.5907
vn -0.1676 0.6316 0.7570
vn 0.7374 0.1617 -0.6559
vn 0.1457 -0.0161 -0.9892
vn 0.1389 -0.0173 -0.9902
vn 0.7303 0.1575 -0.6648
vn -0.5976 -0.0618 -0.7994
vn -0.5944 -0.0621 -0.8017
vn -0.5442 -0.6203 -0.5649
vn -0.8962 -0.4420 0.0385
vn -0.8961 -0.4423 0.0377
vn -0.5430 -0.6205 -0.5659
vn 0.1585 -0.6165 -0.7712
vn 0.1573 -0.6167 -0.7713
vn -0.1002 0.9417 -0.3212
vn -0.1352 0.9338 -0.3314
vn -0.1354 0.9335 -0.3320
vn -0.0999 0.9417 -0.3213
vn -0.1376 0.9250 -0.3541
vn -0.0995 0.9321 -0.3482
vn -0.0856 0.9364 -0.3403
vn -0.0859 0.9364 -0.3404
vn -0.0909 0.9311 -0.3533
vn -0.0908 0.9311 -0.3534
vn -0.0966 0.9247 -0.3683
vn -0.0968 0.9246 -0.3684
vn -0.1216 0.9225 -0.3664
vn -0.1217 0.9225 -0.3663
vn -0.0574 0.9050 -0.4215
vn -0.0975 0.9038 -0.4167
vn -0.1127 0.9270 -0.3578
vn -0.0661 0.9316 -0.3573
vn -0.1370 0.9012 -0.4113
vn -0.1579 0.9207 -0.3568
vn -0.1795 0.9378 -0.2972
vn -0.1235 0.9467 -0.2974
vn -0.0739 0.9521 -0.2969
vn 0.9050 0.4227 -0.0470
vn 0.9060 0.4196 -0.0558
vn -0.4547 0.6832 -0.5713
vn -0.6762 0.3114 -0.6677
usemtl Pirat__bomb
s 1
f 175/1/1 5/2/2 8/3/3 176/4/4
f 177/5/5 19/6/6 5/7/2 175/8/1
f 179/9/7 7/10/8 6/11/9 178/12/10
f 180/13/11 20/14/12 7/10/8 179/9/7
f 5/2/2 9/15/13 12/16/14 8/3/3
f 19/6/6 21/17/15 9/18/13 5/7/2
f 7/10/8 11/19/16 10/20/17 6/11/9
f 20/14/12 22/21/18 11/19/16 7/10/8
f 9/15/13 13/22/19 16/23/20 12/16/14
f 21/17/15 23/24/21 13/25/19 9/18/13
f 11/19/16 15/26/22 14/27/23 10/20/17
f 22/21/18 24/28/24 15/26/22 11/19/16
f 12/16/14 16/23/20 24/28/24 22/21/18
f 10/20/17 14/27/23 23/24/21 21/17/15
f 8/3/3 12/16/14 22/21/18 20/14/12
f 6/11/9 10/20/17 21/17/15 19/6/6
f 176/4/4 8/3/3 20/14/12 180/13/11
f 178/12/10 6/11/9 19/6/6 177/5/5
f 4/29/25 18/30/26 3/31/27 1/32/28
f 25/33/29 52/34/30 98/35/31 51/36/32
f 52/34/30 34/37/33 74/38/34 98/35/31
f 98/35/31 74/38/34 45/39/35 77/40/36
f 51/36/32 98/35/31 77/40/36 33/41/37
f 34/37/33 53/42/38 99/43/39 74/38/34
f 53/42/38 26/44/40 54/45/41 99/43/39
f 99/43/39 54/45/41 35/46/42 75/47/43
f 74/38/34 99/43/39 75/47/43 45/39/35
f 45/39/35 75/47/43 100/48/44 76/49/45
f 75/47/43 35/46/42 55/50/46 100/48/44
f 100/48/44 55/50/46 28/51/47 56/52/48
f 76/49/45 100/48/44 56/52/48 36/53/49
f 33/41/37 77/40/36 101/54/50 50/55/51
f 77/40/36 45/39/35 76/49/45 101/54/50
f 101/54/50 76/49/45 36/53/49 57/56/52
f 50/55/51 101/54/50 57/56/52 27/57/53
f 27/58/53 57/59/52 102/60/54 59/61/55
f 57/59/52 36/62/49 78/63/56 102/60/54
f 102/60/54 78/63/56 46/64/57 81/65/58
f 59/61/55 102/60/54 81/65/58 37/66/59
f 36/62/49 56/67/48 103/68/60 78/63/56
f 56/67/48 28/51/47 60/69/61 103/68/60
f 103/68/60 60/69/61 38/70/62 79/71/63
f 78/63/56 103/68/60 79/71/63 46/64/57
f 46/64/57 79/71/63 104/72/64 80/73/65
f 79/71/63 38/70/62 61/74/66 104/72/64
f 104/72/64 61/74/66 32/75/67 62/76/68
f 80/73/65 104/72/64 62/76/68 39/77/69
f 37/66/59 81/65/58 105/78/70 58/79/71
f 81/65/58 46/64/57 80/73/65 105/78/70
f 105/78/70 80/73/65 39/77/69 63/80/72
f 58/79/71 105/78/70 63/80/72 31/81/73
f 31/82/73 63/83/72 106/84/74 65/85/75
f 63/83/72 39/86/69 82/87/76 106/84/74
f 106/84/74 82/87/76 47/88/77 85/89/78
f 65/85/75 106/84/74 85/89/78 40/90/79
f 39/86/69 62/91/68 107/92/80 82/87/76
f 62/91/68 32/75/67 66/93/81 107/92/80
f 107/92/80 66/93/81 41/94/82 83/95/83
f 82/87/76 107/92/80 83/95/83 47/88/77
f 47/88/77 83/95/83 108/96/84 84/97/85
f 83/95/83 41/94/82 67/98/86 108/96/84
f 108/96/84 67/98/86 30/99/87 68/100/88
f 84/97/85 108/96/84 68/100/88 42/101/89
f 40/90/79 85/89/78 109/102/90 64/103/91
f 85/89/78 47/88/77 84/97/85 109/102/90
f 109/102/90 84/97/85 42/101/89 69/104/92
f 64/103/91 109/102/90 69/104/92 29/105/93
f 29/106/93 69/107/92 110/108/94 71/109/95
f 69/107/92 42/110/89 86/111/96 110/108/94
f 110/108/94 86/111/96 48/112/97 89/113/98
f 71/109/95 110/108/94 89/113/98 43/114/99
f 42/110/89 68/115/88 111/116/100 86/111/96
f 68/115/88 30/99/87 72/117/101 111/116/100
f 111/116/100 72/117/101 44/118/102 87/119/103
f 86/111/96 111/116/100 87/119/103 48/112/97
f 48/112/97 87/119/103 112/120/104 88/121/105
f 87/119/103 44/118/102 73/122/106 112/120/104
f 112/120/104 73/122/106 26/44/40 53/123/38
f 88/121/105 112/120/104 53/123/38 34/124/33
f 43/114/99 89/113/98 113/125/107 70/126/108
f 89/113/98 48/112/97 88/121/105 113/125/107
f 113/125/107 88/121/105 34/124/33 52/127/30
f 70/126/108 113/125/107 52/127/30 25/128/29
f 27/129/53 59/130/55 114/131/109 50/132/51
f 59/130/55 37/133/59 90/134/110 114/131/109
f 114/131/109 90/134/110 49/135/111 93/136/112
f 50/132/51 114/131/109 93/136/112 33/137/37
f 37/133/59 58/138/71 115/139/113 90/134/110
f 58/138/71 31/140/73 65/141/75 115/139/113
f 115/139/113 65/141/75 40/142/79 91/143/114
f 90/134/110 115/139/113 91/143/114 49/135/111
f 49/135/111 91/143/114 116/144/115 92/145/116
f 91/143/114 40/142/79 64/146/91 116/144/115
f 116/144/115 64/146/91 29/147/93 71/148/95
f 92/145/116 116/144/115 71/148/95 43/149/99
f 33/137/37 93/136/112 117/150/117 51/151/32
f 93/136/112 49/135/111 92/145/116 117/150/117
f 117/150/117 92/145/116 43/149/99 70/152/108
f 51/151/32 117/150/117 70/152/108 25/153/29
f 135/154/118 134/155/119 118/156/120
f 134/155/119 130/157/121 94/158/122 118/156/120
f 135/154/118 118/156/120 97/159/123 133/160/124
f 130/157/121 136/161/125 119/162/126 94/158/122
f 136/161/125 137/163/127 119/162/126
f 137/163/127 55/50/46 35/46/42 131/164/128
f 131/164/128 35/46/42 54/45/41 138/165/129
f 138/165/129 54/45/41 26/44/40 73/122/106 139/166/130
f 132/167/131 139/166/130 73/122/106 44/118/102
f 133/160/124 97/159/123 121/168/132 141/169/133
f 140/170/134 132/167/131 44/118/102 72/117/101
f 141/169/133 121/168/132 140/170/134
f 95/171/135 120/172/136 128/173/137 123/174/138
f 119/162/126 95/171/135 123/174/138 127/175/139
f 96/176/140 121/168/132 129/177/141 124/178/142
f 97/159/123 118/156/120 126/179/143 125/180/144
f 120/172/136 96/176/140 124/178/142 128/173/137
f 94/158/122 119/162/126 127/175/139 122/181/145
f 121/168/132 97/159/123 125/180/144 129/177/141
f 118/156/120 94/158/122 122/181/145 126/179/143
f 67/98/86 141/169/133 140/170/134 72/117/101 30/99/87
f 121/168/132 96/176/140 132/167/131 140/170/134
f 41/94/82 133/160/124 141/169/133 67/98/86
f 96/176/140 120/172/136 139/166/130 132/167/131
f 120/172/136 138/165/129 139/166/130
f 95/171/135 131/164/128 138/165/129 120/172/136
f 119/162/126 137/163/127 131/164/128 95/171/135
f 60/69/61 28/51/47 55/50/46 137/163/127 136/161/125
f 38/70/62 60/69/61 136/161/125 130/157/121
f 66/93/81 135/154/118 133/160/124 41/94/82
f 61/74/66 38/70/62 130/157/121 134/155/119
f 32/75/67 61/74/66 134/155/119 135/154/118 66/93/81
f 148/182/146 144/183/147 164/184/148 163/185/149
f 145/186/150 146/187/151 159/188/152 153/189/150
f 144/183/147 149/190/153 165/191/154 164/184/148
f 160/192/155 154/193/156 171/194/157 170/195/158
f 158/196/159 155/197/160 172/198/161 166/199/162
f 156/200/163 152/201/164 169/202/165 173/203/166
f 152/204/164 157/205/167 174/206/168 169/207/165
f 147/208/169 143/209/170 161/210/171 162/211/172
f 142/212/173 147/208/169 162/211/172 150/213/174
f 149/190/153 145/186/150 153/189/150 165/191/154
f 146/214/151 142/212/173 150/213/174 159/215/152
f 158/216/175 154/217/176 159/218/177 150/219/178
f 154/217/176 160/220/179 153/221/179 159/218/177
f 151/222/180 155/223/181 162/224/182 161/225/180
f 155/223/181 158/216/175 150/219/178 162/224/182
f 156/226/183 151/222/180 161/225/180 163/227/184
f 152/228/185 156/226/183 163/227/184 164/229/186
f 160/220/179 157/230/187 165/231/188 153/221/179
f 157/230/187 152/228/185 164/229/186 165/231/188
f 171/232/189 166/233/190 167/234/191 170/235/192
f 166/233/190 172/236/193 168/237/194 167/234/191
f 167/234/191 168/237/194 173/238/195 169/239/196
f 170/235/192 167/234/191 169/239/196 174/240/197
f 157/205/167 160/192/155 170/195/158 174/206/168
f 151/241/198 156/200/163 173/203/166 168/242/199
f 155/197/160 151/241/198 168/242/199 172/198/161
f 154/193/156 158/196/159 166/199/162 171/194/157
f 143/209/170 148/182/146 163/185/149 161/210/171
f 1/32/28 3/31/27 2/243/200 17/244/201
f 4/29/25 1/32/28 175/8/1 176/4/4
f 17/244/201 2/243/200 178/12/10 177/5/5
f 2/243/200 3/31/27 179/9/7 178/12/10
f 18/30/26 4/29/25 176/4/4 180/13/11
f 1/32/28 17/244/201 177/5/5 175/8/1
f 3/31/27 18/30/26 180/13/11 179/9/7
